<?xml version="1.0" standalone="no"?>
<!DOCTYPE svg PUBLIC "-//W3C//DTD SVG 20010904//EN"
 "http://www.w3.org/TR/2001/REC-SVG-20010904/DTD/svg10.dtd">
<svg version="1.0" xmlns="http://www.w3.org/2000/svg"
 width="291.000000pt" height="291.000000pt" viewBox="0 0 291.000000 291.000000"
 preserveAspectRatio="xMidYMid meet">
<metadata>
Created by potrace 1.11, written by Peter Selinger 2001-2013
</metadata>
<g transform="translate(0.000000,291.000000) scale(0.100000,-0.100000)"
fill="#000000" stroke="none">
<path d="M80 2844 c0 -7 173 -348 180 -354 3 -3 26 -45 51 -95 26 -49 84 -164
131 -255 47 -91 131 -253 186 -360 54 -107 134 -262 177 -345 216 -418 426
-827 522 -1015 65 -129 208 -361 222 -360 10 1 792 1573 791 1593 0 9 5 17 10
17 6 0 10 9 10 19 0 11 3 21 8 23 21 9 151 327 155 379 1 11 7 17 13 15 20 -8
53 23 79 73 28 55 71 184 121 356 19 66 37 127 41 135 3 8 7 20 9 25 1 6 7 24
12 42 6 17 8 34 4 37 -9 10 -42 7 -42 -4 0 -5 -9 -19 -19 -29 -11 -11 -27 -33
-35 -49 -19 -36 -84 -116 -219 -266 -30 -34 -90 -132 -94 -156 -2 -8 -4 -33
-5 -55 -1 -32 -10 -49 -45 -87 -24 -26 -43 -51 -43 -56 0 -5 -11 -22 -25 -38
-42 -48 -101 -155 -120 -216 -10 -32 -21 -58 -26 -58 -4 0 -93 -172 -199 -382
-105 -211 -194 -386 -198 -390 -4 -4 -31 39 -59 95 -29 56 -85 165 -126 242
-40 77 -117 226 -172 330 -54 105 -115 222 -135 260 -21 39 -86 165 -145 280
-60 116 -125 242 -145 280 -36 67 -61 91 -109 100 -11 2 -29 9 -41 15 -11 6
-25 8 -30 5 -5 -3 -11 -1 -15 5 -4 6 -11 8 -16 5 -5 -4 -9 -2 -9 3 0 5 -9 12
-20 15 -11 3 -18 2 -15 -2 2 -4 -2 -8 -10 -8 -8 0 -12 3 -10 7 6 10 -44 32
-56 25 -5 -4 -9 -1 -9 5 0 6 -4 8 -10 5 -5 -3 -10 -2 -10 4 0 6 -15 14 -32 20
-18 5 -73 24 -121 41 -49 17 -97 32 -108 33 -10 1 -19 5 -19 10 0 4 -4 6 -9 3
-5 -4 -11 -2 -13 4 -1 5 -15 11 -30 12 -16 1 -28 5 -28 9 0 4 -12 10 -27 14
-16 3 -41 12 -58 20 -43 18 -65 25 -65 19z m2126 -1111 c-7 -7 -26 7 -26 19 0
6 6 6 15 -2 9 -7 13 -15 11 -17z m45 -50 c9 -7 19 -10 23 -6 4 4 -3 15 -16 25
l-23 19 28 -12 c29 -13 31 -17 18 -38 -7 -11 -20 -8 -65 18 -31 18 -56 34 -56
37 0 6 73 -28 91 -43z"/>
<path d="M1635 1688 c-70 -38 -99 -109 -76 -181 28 -84 131 -123 201 -75 93
62 91 191 -2 248 -36 22 -92 26 -123 8z"/>
</g>
</svg>
